<svg width="143" height="82" viewBox="0 0 143 82" fill="none" xmlns="http://www.w3.org/2000/svg">
<circle cx="13" cy="50" r="6" fill="#FDFDFD"/>
<circle cx="33" cy="64" r="6" fill="#FDFDFD"/>
<circle cx="54" cy="72" r="6" fill="#FDFDFD"/>
<circle cx="77" cy="76" r="6" fill="#FDFDFD"/>
<circle cx="100" cy="72" r="6" fill="#FDFDFD"/>
<circle cx="115" cy="58" r="6" fill="#FDFDFD"/>
<circle cx="129" cy="16" r="14" fill="#7EA7A6"/>
<path d="M129 43L119.474 22.75L138.526 22.75L129 43Z" fill="#7EA7A6"/>
<circle cx="129" cy="16" r="5" fill="#FDFDFD"/>
<path d="M11.79 14.06C10.93 14.06 10.16 14.23 9.48 14.57C8.82 14.91 8.26 15.4 7.8 16.04C7.34 16.66 6.99 17.42 6.75 18.32C6.53 19.22 6.42 20.23 6.42 21.35C6.42 22.87 6.6 24.17 6.96 25.25C7.34 26.31 7.93 27.12 8.73 27.68C9.53 28.24 10.55 28.52 11.79 28.52C12.67 28.52 13.54 28.42 14.4 28.22C15.28 28.02 16.23 27.74 17.25 27.38V31.19C16.31 31.57 15.38 31.85 14.46 32.03C13.54 32.21 12.51 32.3 11.37 32.3C9.17 32.3 7.35 31.85 5.91 30.95C4.49 30.03 3.44 28.75 2.76 27.11C2.08 25.45 1.74 23.52 1.74 21.32C1.74 19.7 1.96 18.22 2.4 16.88C2.84 15.52 3.48 14.35 4.32 13.37C5.18 12.39 6.23 11.63 7.47 11.09C8.73 10.55 10.17 10.28 11.79 10.28C12.85 10.28 13.91 10.42 14.97 10.7C16.05 10.96 17.08 11.32 18.06 11.78L16.59 15.47C15.79 15.09 14.98 14.76 14.16 14.48C13.36 14.2 12.57 14.06 11.79 14.06ZM37.8216 23.78C37.8216 25.14 37.6316 26.35 37.2516 27.41C36.8916 28.47 36.3616 29.37 35.6616 30.11C34.9816 30.83 34.1516 31.38 33.1716 31.76C32.1916 32.12 31.0816 32.3 29.8416 32.3C28.7016 32.3 27.6416 32.12 26.6616 31.76C25.7016 31.38 24.8716 30.83 24.1716 30.11C23.4716 29.37 22.9216 28.47 22.5216 27.41C22.1416 26.35 21.9516 25.14 21.9516 23.78C21.9516 21.96 22.2716 20.43 22.9116 19.19C23.5516 17.93 24.4716 16.97 25.6716 16.31C26.8716 15.65 28.2916 15.32 29.9316 15.32C31.4716 15.32 32.8316 15.65 34.0116 16.31C35.1916 16.97 36.1216 17.93 36.8016 19.19C37.4816 20.43 37.8216 21.96 37.8216 23.78ZM26.5116 23.78C26.5116 24.86 26.6216 25.77 26.8416 26.51C27.0816 27.23 27.4516 27.78 27.9516 28.16C28.4516 28.52 29.1016 28.7 29.9016 28.7C30.7016 28.7 31.3416 28.52 31.8216 28.16C32.3216 27.78 32.6816 27.23 32.9016 26.51C33.1416 25.77 33.2616 24.86 33.2616 23.78C33.2616 22.7 33.1416 21.8 32.9016 21.08C32.6816 20.36 32.3216 19.82 31.8216 19.46C31.3216 19.1 30.6716 18.92 29.8716 18.92C28.6916 18.92 27.8316 19.33 27.2916 20.15C26.7716 20.95 26.5116 22.16 26.5116 23.78ZM47.4858 13.85C47.4858 14.65 47.4558 15.42 47.3958 16.16C47.3558 16.9 47.3158 17.42 47.2758 17.72H47.5158C47.8758 17.16 48.2958 16.71 48.7758 16.37C49.2558 16.01 49.7858 15.75 50.3658 15.59C50.9658 15.41 51.5958 15.32 52.2558 15.32C53.4358 15.32 54.4658 15.53 55.3458 15.95C56.2258 16.37 56.9058 17.02 57.3858 17.9C57.8858 18.78 58.1358 19.92 58.1358 21.32V32H53.6658V22.43C53.6658 21.25 53.4458 20.37 53.0058 19.79C52.5858 19.19 51.9258 18.89 51.0258 18.89C50.1258 18.89 49.4158 19.1 48.8958 19.52C48.3958 19.94 48.0358 20.55 47.8158 21.35C47.5958 22.15 47.4858 23.13 47.4858 24.29V32H43.0158V9.2H47.4858V13.85ZM79.1126 23.78C79.1126 25.14 78.9226 26.35 78.5426 27.41C78.1826 28.47 77.6526 29.37 76.9526 30.11C76.2726 30.83 75.4426 31.38 74.4626 31.76C73.4826 32.12 72.3726 32.3 71.1326 32.3C69.9926 32.3 68.9326 32.12 67.9526 31.76C66.9926 31.38 66.1626 30.83 65.4626 30.11C64.7626 29.37 64.2126 28.47 63.8126 27.41C63.4326 26.35 63.2426 25.14 63.2426 23.78C63.2426 21.96 63.5626 20.43 64.2026 19.19C64.8426 17.93 65.7626 16.97 66.9626 16.31C68.1626 15.65 69.5826 15.32 71.2226 15.32C72.7626 15.32 74.1226 15.65 75.3026 16.31C76.4826 16.97 77.4126 17.93 78.0926 19.19C78.7726 20.43 79.1126 21.96 79.1126 23.78ZM67.8026 23.78C67.8026 24.86 67.9126 25.77 68.1326 26.51C68.3726 27.23 68.7426 27.78 69.2426 28.16C69.7426 28.52 70.3926 28.7 71.1926 28.7C71.9926 28.7 72.6326 28.52 73.1126 28.16C73.6126 27.78 73.9726 27.23 74.1926 26.51C74.4326 25.77 74.5526 24.86 74.5526 23.78C74.5526 22.7 74.4326 21.8 74.1926 21.08C73.9726 20.36 73.6126 19.82 73.1126 19.46C72.6126 19.1 71.9626 18.92 71.1626 18.92C69.9826 18.92 69.1226 19.33 68.5826 20.15C68.0626 20.95 67.8026 22.16 67.8026 23.78ZM93.4568 15.32C93.6768 15.32 93.9368 15.33 94.2368 15.35C94.5368 15.37 94.7768 15.4 94.9568 15.44L94.6268 19.64C94.4868 19.6 94.2768 19.57 93.9968 19.55C93.7368 19.51 93.5068 19.49 93.3068 19.49C92.7268 19.49 92.1668 19.57 91.6268 19.73C91.0868 19.87 90.5968 20.1 90.1568 20.42C89.7368 20.74 89.3968 21.17 89.1368 21.71C88.8968 22.23 88.7768 22.88 88.7768 23.66V32H84.3068V15.62H87.6968L88.3568 18.38H88.5668C88.8868 17.82 89.2868 17.31 89.7668 16.85C90.2468 16.39 90.7968 16.02 91.4168 15.74C92.0568 15.46 92.7368 15.32 93.4568 15.32ZM106.33 28.73C106.83 28.73 107.31 28.68 107.77 28.58C108.23 28.48 108.69 28.36 109.15 28.22V31.55C108.67 31.75 108.07 31.92 107.35 32.06C106.65 32.22 105.88 32.3 105.04 32.3C104.06 32.3 103.18 32.14 102.4 31.82C101.64 31.5 101.03 30.95 100.57 30.17C100.13 29.37 99.9098 28.27 99.9098 26.87V18.98H97.7798V17.09L100.24 15.59L101.53 12.14H104.38V15.62H108.97V18.98H104.38V26.87C104.38 27.49 104.56 27.96 104.92 28.28C105.28 28.58 105.75 28.73 106.33 28.73Z" fill="#FDFDFD"/>
</svg>
